# xmcd
#
# Track frame offsets: 
#        150
#        18425
#        39937
#        58395
#        75307
#        81722
#        97042
#        108510
#        126672
#        132262
#
# Disc length: 2298 seconds
#
# Revision: 2
# Processed by: cddbd v1.5.2PL0 Copyright (c) Steve Scherf et al.
# Submitted via: ExactAudioCopy v0.99pb5
#
DISCID=8a08f80a
DTITLE=Rory Block - House of Hearts
DYEAR=1988
DGENRE=Blues
TTITLE0=Farewell Young Man
TTITLE1=Heavenly Bird
TTITLE2=Do You Love Me
TTITLE3=Morning Bells
TTITLE4=Gentle Kindness
TTITLE5=Misty Glen
TTITLE6=On the Water
TTITLE7=Bonnie Boy
TTITLE8=Krye
TTITLE9=House of Hearts
EXTD=
EXTT0=
EXTT1=
EXTT2=
EXTT3=
EXTT4=
EXTT5=
EXTT6=
EXTT7=
EXTT8=
EXTT9=
PLAYORDER=
